<svg xmlns="http://www.w3.org/2000/svg" xmlns:xlink="http://www.w3.org/1999/xlink" version="1.1" x="0px" y="0px" viewBox="0 0 100 100" enable-background="new 0 0 100 100" xml:space="preserve"><path d="M67.542,11.75H32.458c-2.688,0-4.875,2.271-4.875,5.063v66.373c0,2.792,2.187,5.063,4.875,5.063h35.084  c2.688,0,4.875-2.271,4.875-5.063V48.875v-7.711V26.064v-0.133v-9.118C72.417,14.021,70.229,11.75,67.542,11.75z M44.928,17.425  h10.375c0.448,0,0.813,0.364,0.813,0.813s-0.364,0.813-0.813,0.813H44.928c-0.449,0-0.813-0.364-0.813-0.813  S44.479,17.425,44.928,17.425z M53.032,83.278h-6.341c-0.897,0-1.625-0.728-1.625-1.625s0.728-1.625,1.625-1.625h6.341  c0.897,0,1.625,0.728,1.625,1.625S53.93,83.278,53.032,83.278z M70.417,28.478v8.947v11.451V75.27H29.583V24.333h40.834v1.598  V28.478z"></path></svg>